<svg width="117" height="46" viewBox="0 0 117 46" fill="none" xmlns="http://www.w3.org/2000/svg">
<path d="M116.286 16.9067C116.272 16.8594 116.261 16.812 116.243 16.7611C116.239 16.7465 116.232 16.7247 116.228 16.7102C116.192 16.6046 116.159 16.4991 116.123 16.3936C116.097 16.3172 116.072 16.2407 116.042 16.168C116.01 16.0733 115.977 15.9824 115.937 15.8914C115.911 15.8186 115.882 15.7458 115.853 15.6767C115.795 15.5239 115.73 15.3783 115.664 15.2291C115.628 15.1454 115.588 15.0581 115.548 14.9744C115.373 14.5959 115.18 14.232 114.973 13.8718C114.907 13.7553 114.838 13.6352 114.765 13.5224C114.711 13.4351 114.66 13.3478 114.601 13.2641C114.547 13.1767 114.489 13.0894 114.43 13.0093C114.387 12.9402 114.339 12.8747 114.292 12.8092C114.238 12.7255 114.179 12.6455 114.121 12.569C113.859 12.2088 113.579 11.8631 113.281 11.5283C112.007 10.1018 110.449 8.92645 108.666 8.07493C106.552 7.05967 104.125 6.49927 101.494 6.49927C93.3136 6.49927 86.9454 12.4926 86.163 19.9561H94.4126C95.104 16.6883 97.8696 14.2066 101.49 14.2066C101.49 14.2066 108.663 14.2138 108.663 19.9561V22.4379C106.428 21.4517 103.812 20.8986 100.955 20.8986C92.2146 20.8986 85.5444 26.6081 85.5444 33.4239C85.5444 34.2936 85.6354 35.1414 85.8137 35.9638C85.8137 35.9638 85.8137 35.9675 85.8174 35.9675C86.9855 41.3859 91.8762 45.5634 98.5682 45.9637C98.9176 45.9892 99.2742 46.0001 99.6344 46.0001C102.426 46.0001 104.809 45.3414 106.676 44.1915C107.425 43.733 108.088 43.1981 108.663 42.594V45.3742H116.425V17.951C116.428 17.5944 116.381 17.2414 116.286 16.9067ZM105.802 38.1072C104.965 38.7258 103.954 39.1843 102.815 39.4208C102.225 39.5482 101.607 39.6137 100.959 39.6137C96.7597 39.6137 93.7139 36.8299 93.7139 33.4712C93.7139 30.1124 96.7633 27.3286 100.959 27.3286C105.158 27.3286 108.262 30.1124 108.262 33.4712C108.262 35.3125 107.334 36.9755 105.802 38.1072Z" fill="#BCEB00"/>
<path d="M79.9878 37.5431C77.9754 33.5148 76.538 30.8693 74.0635 29.4938C79.0089 28.1728 82.1129 24.0899 82.1129 18.7989C82.1129 12.3289 77.9463 8.41699 71.9057 7.04875C70.461 6.72124 68.9108 6.5393 67.2842 6.49927C60.6286 6.6521 55.2356 9.22848 53.2633 14.2539C52.7357 15.593 52.4518 17.1068 52.4518 18.7953C52.4518 21.3098 53.1505 23.5477 54.4169 25.349C54.446 25.3927 54.4751 25.4327 54.5042 25.4727C52.9213 25.8876 51.7495 27.3286 51.7495 29.0462V45.1922H60.0318L60.09 32.8271H63.365C67.7354 32.8271 69.4021 34.723 71.1851 38.2928L74.6349 45.1922H83.7213L79.9878 37.5431ZM67.2805 25.3308C63.6452 25.1198 61.0761 23.082 61.0761 19.6577C61.0761 16.037 63.7435 14.4067 67.2842 14.2611C70.8213 14.4067 73.4886 16.037 73.4886 19.6577C73.4886 23.082 70.9195 25.1198 67.2805 25.3308Z" fill="#BCEB00"/>
<path d="M36.9972 7.43801C38.1253 3.7372 35.356 0 31.4878 0H28.5403C25.3671 0 22.4923 1.43374 20.4109 3.75539C18.333 6.08068 17.0448 9.2866 17.0448 12.8309C17.0448 17.8854 19.6612 22.2522 23.4639 24.3482L19.8978 36.4514C19.6685 37.201 19.3228 37.6013 18.7479 37.6013C18.1729 37.6013 17.769 37.201 17.5397 36.4514L8.62431 6.49188H0L9.94888 38.8676C11.4445 43.6383 14.2065 45.9963 18.6896 45.9963C23.1765 45.9963 25.9348 43.6383 27.434 38.8676L31.4514 25.6655H35.2541C36.6042 25.6655 37.8996 25.4035 39.1041 24.9268V45.1921H47.4992V6.48825H39.1041V16.0987C38.8931 16.4662 38.6493 16.801 38.3764 17.1067C37.3975 18.202 36.0401 18.8789 34.5445 18.8789H33.5184L36.9972 7.43801ZM25.5527 17.2523C24.4938 16.1497 23.8315 14.5776 23.8315 12.8309C23.8315 11.1607 24.4392 9.64685 25.4181 8.55153C26.2587 7.61268 27.3758 6.9795 28.624 6.82303L25.5527 17.2523Z" fill="#BCEB00"/>
</svg>
